<?xml version="1.0" encoding="UTF-8" standalone="no"?>
<!DOCTYPE svg PUBLIC "-//W3C//DTD SVG 1.1//EN"
 "http://www.w3.org/Graphics/SVG/1.1/DTD/svg11.dtd">
<!-- Generated by graphviz version 2.40.1 (20161225.0304)
 -->
<!-- Title: dependencies Pages: 1 -->
<svg width="504pt" height="211pt"
 viewBox="0.00 0.00 504.00 211.00" xmlns="http://www.w3.org/2000/svg" xmlns:xlink="http://www.w3.org/1999/xlink">
<g id="graph0" class="graph" transform="scale(1 1) rotate(0) translate(4 207)">
<title>dependencies</title>
<polygon fill="#ffffff" stroke="transparent" points="-4,4 -4,-207 500,-207 500,4 -4,4"/>
<text text-anchor="start" x="227.0091" y="-42.4" font-family="sans-serif" font-weight="bold" font-size="14.00" fill="#000000">Legend</text>
<polygon fill="#ffffb3" stroke="transparent" points="14,-10 14,-30 34,-30 34,-10 14,-10"/>
<text text-anchor="start" x="37.629" y="-15.4" font-family="sans-serif" font-size="14.00" fill="#000000"> &#160;Declarations</text>
<polygon fill="#8dd3c7" stroke="transparent" points="127,-10 127,-30 147,-30 147,-10 127,-10"/>
<text text-anchor="start" x="150.7251" y="-15.4" font-family="sans-serif" font-size="14.00" fill="#000000"> &#160;Module</text>
<polygon fill="#80b1d3" stroke="transparent" points="213,-10 213,-30 233,-30 233,-10 213,-10"/>
<text text-anchor="start" x="236.7812" y="-15.4" font-family="sans-serif" font-size="14.00" fill="#000000"> &#160;Bootstrap</text>
<polygon fill="#fdb462" stroke="transparent" points="310,-10 310,-30 330,-30 330,-10 310,-10"/>
<text text-anchor="start" x="333.6732" y="-15.4" font-family="sans-serif" font-size="14.00" fill="#000000"> &#160;Providers</text>
<polygon fill="#fb8072" stroke="transparent" points="406,-10 406,-30 426,-30 426,-10 406,-10"/>
<text text-anchor="start" x="429.7258" y="-15.4" font-family="sans-serif" font-size="14.00" fill="#000000"> &#160;Exports</text>
<g id="clust1" class="cluster">
<title>cluster_OpeningHoursPageModule</title>
<polygon fill="none" stroke="#000000" stroke-dasharray="1,5" points="72,-70 72,-195 424,-195 424,-70 72,-70"/>
</g>
<g id="clust2" class="cluster">
<title>cluster_OpeningHoursPageModule_declarations</title>
<polygon fill="none" stroke="#000000" points="80,-78 80,-130 416,-130 416,-78 80,-78"/>
</g>
<!-- DetailedOpeningModalPage -->
<g id="node1" class="node">
<title>DetailedOpeningModalPage</title>
<polygon fill="#ffffb3" stroke="#000000" points="407.896,-122 232.104,-122 232.104,-86 407.896,-86 407.896,-122"/>
<text text-anchor="middle" x="320" y="-99.8" font-family="Times,serif" font-size="14.00" fill="#000000">DetailedOpeningModalPage</text>
</g>
<!-- OpeningHoursPageModule -->
<g id="node3" class="node">
<title>OpeningHoursPageModule</title>
<polygon fill="#8dd3c7" stroke="#000000" points="326.6853,-187 323.6853,-191 302.6853,-191 299.6853,-187 157.3147,-187 157.3147,-151 326.6853,-151 326.6853,-187"/>
<text text-anchor="middle" x="242" y="-164.8" font-family="Times,serif" font-size="14.00" fill="#000000">OpeningHoursPageModule</text>
</g>
<!-- DetailedOpeningModalPage&#45;&gt;OpeningHoursPageModule -->
<g id="edge1" class="edge">
<title>DetailedOpeningModalPage&#45;&gt;OpeningHoursPageModule</title>
<path fill="none" stroke="#000000" d="M279.4474,-122.1061C279.4474,-122.1061 279.4474,-140.991 279.4474,-140.991"/>
<polygon fill="#000000" stroke="#000000" points="275.9475,-140.9909 279.4474,-150.991 282.9475,-140.991 275.9475,-140.9909"/>
</g>
<!-- OpeningHoursPage -->
<g id="node2" class="node">
<title>OpeningHoursPage</title>
<polygon fill="#ffffb3" stroke="#000000" points="213.6359,-122 88.3641,-122 88.3641,-86 213.6359,-86 213.6359,-122"/>
<text text-anchor="middle" x="151" y="-99.8" font-family="Times,serif" font-size="14.00" fill="#000000">OpeningHoursPage</text>
</g>
<!-- OpeningHoursPage&#45;&gt;OpeningHoursPageModule -->
<g id="edge2" class="edge">
<title>OpeningHoursPage&#45;&gt;OpeningHoursPageModule</title>
<path fill="none" stroke="#000000" d="M185.6126,-122.1061C185.6126,-122.1061 185.6126,-140.991 185.6126,-140.991"/>
<polygon fill="#000000" stroke="#000000" points="182.1126,-140.9909 185.6126,-150.991 189.1126,-140.991 182.1126,-140.9909"/>
</g>
</g>
</svg>
