<?xml version="1.0" encoding="UTF-8" standalone="no"?>
<!DOCTYPE svg PUBLIC "-//W3C//DTD SVG 1.1//EN"
 "http://www.w3.org/Graphics/SVG/1.1/DTD/svg11.dtd">
<!-- Generated by graphviz version 2.40.1 (20161225.0304)
 -->
<!-- Title: dependencies Pages: 1 -->
<svg width="504pt" height="211pt"
 viewBox="0.00 0.00 504.00 211.00" xmlns="http://www.w3.org/2000/svg" xmlns:xlink="http://www.w3.org/1999/xlink">
<g id="graph0" class="graph" transform="scale(1 1) rotate(0) translate(4 207)">
<title>dependencies</title>
<polygon fill="#ffffff" stroke="transparent" points="-4,4 -4,-207 500,-207 500,4 -4,4"/>
<text text-anchor="start" x="227.0091" y="-42.4" font-family="sans-serif" font-weight="bold" font-size="14.00" fill="#000000">Legend</text>
<polygon fill="#ffffb3" stroke="transparent" points="14,-10 14,-30 34,-30 34,-10 14,-10"/>
<text text-anchor="start" x="37.629" y="-15.4" font-family="sans-serif" font-size="14.00" fill="#000000"> &#160;Declarations</text>
<polygon fill="#8dd3c7" stroke="transparent" points="127,-10 127,-30 147,-30 147,-10 127,-10"/>
<text text-anchor="start" x="150.7251" y="-15.4" font-family="sans-serif" font-size="14.00" fill="#000000"> &#160;Module</text>
<polygon fill="#80b1d3" stroke="transparent" points="213,-10 213,-30 233,-30 233,-10 213,-10"/>
<text text-anchor="start" x="236.7812" y="-15.4" font-family="sans-serif" font-size="14.00" fill="#000000"> &#160;Bootstrap</text>
<polygon fill="#fdb462" stroke="transparent" points="310,-10 310,-30 330,-30 330,-10 310,-10"/>
<text text-anchor="start" x="333.6732" y="-15.4" font-family="sans-serif" font-size="14.00" fill="#000000"> &#160;Providers</text>
<polygon fill="#fb8072" stroke="transparent" points="406,-10 406,-30 426,-30 426,-10 406,-10"/>
<text text-anchor="start" x="429.7258" y="-15.4" font-family="sans-serif" font-size="14.00" fill="#000000"> &#160;Exports</text>
<g id="clust1" class="cluster">
<title>cluster_TransportPageModule</title>
<polygon fill="none" stroke="#000000" stroke-dasharray="1,5" points="130,-70 130,-195 366,-195 366,-70 130,-70"/>
</g>
<g id="clust2" class="cluster">
<title>cluster_TransportPageModule_declarations</title>
<polygon fill="none" stroke="#000000" points="138,-78 138,-130 358,-130 358,-78 138,-78"/>
</g>
<!-- MomentPipe -->
<g id="node1" class="node">
<title>MomentPipe</title>
<polygon fill="#ffffb3" stroke="#000000" points="350.3288,-122 261.6712,-122 261.6712,-86 350.3288,-86 350.3288,-122"/>
<text text-anchor="middle" x="306" y="-99.8" font-family="Times,serif" font-size="14.00" fill="#000000">MomentPipe</text>
</g>
<!-- TransportPageModule -->
<g id="node3" class="node">
<title>TransportPageModule</title>
<polygon fill="#8dd3c7" stroke="#000000" points="318.6853,-187 315.6853,-191 294.6853,-191 291.6853,-187 177.3147,-187 177.3147,-151 318.6853,-151 318.6853,-187"/>
<text text-anchor="middle" x="248" y="-164.8" font-family="Times,serif" font-size="14.00" fill="#000000">TransportPageModule</text>
</g>
<!-- MomentPipe&#45;&gt;TransportPageModule -->
<g id="edge1" class="edge">
<title>MomentPipe&#45;&gt;TransportPageModule</title>
<path fill="none" stroke="#000000" d="M290.2143,-122.1061C290.2143,-122.1061 290.2143,-140.991 290.2143,-140.991"/>
<polygon fill="#000000" stroke="#000000" points="286.7143,-140.9909 290.2143,-150.991 293.7143,-140.991 286.7143,-140.9909"/>
</g>
<!-- TransportPage -->
<g id="node2" class="node">
<title>TransportPage</title>
<polygon fill="#ffffb3" stroke="#000000" points="243.6361,-122 146.3639,-122 146.3639,-86 243.6361,-86 243.6361,-122"/>
<text text-anchor="middle" x="195" y="-99.8" font-family="Times,serif" font-size="14.00" fill="#000000">TransportPage</text>
</g>
<!-- TransportPage&#45;&gt;TransportPageModule -->
<g id="edge2" class="edge">
<title>TransportPage&#45;&gt;TransportPageModule</title>
<path fill="none" stroke="#000000" d="M210.6126,-122.1061C210.6126,-122.1061 210.6126,-140.991 210.6126,-140.991"/>
<polygon fill="#000000" stroke="#000000" points="207.1126,-140.9909 210.6126,-150.991 214.1126,-140.991 207.1126,-140.9909"/>
</g>
</g>
</svg>
