<?xml version="1.0" encoding="UTF-8" standalone="no"?>
<!DOCTYPE svg PUBLIC "-//W3C//DTD SVG 1.1//EN"
 "http://www.w3.org/Graphics/SVG/1.1/DTD/svg11.dtd">
<!-- Generated by graphviz version 2.40.1 (20161225.0304)
 -->
<!-- Title: dependencies Pages: 1 -->
<svg width="504pt" height="211pt"
 viewBox="0.00 0.00 504.00 211.00" xmlns="http://www.w3.org/2000/svg" xmlns:xlink="http://www.w3.org/1999/xlink">
<g id="graph0" class="graph" transform="scale(1 1) rotate(0) translate(4 207)">
<title>dependencies</title>
<polygon fill="#ffffff" stroke="transparent" points="-4,4 -4,-207 500,-207 500,4 -4,4"/>
<text text-anchor="start" x="227.0091" y="-42.4" font-family="sans-serif" font-weight="bold" font-size="14.00" fill="#000000">Legend</text>
<polygon fill="#ffffb3" stroke="transparent" points="14,-10 14,-30 34,-30 34,-10 14,-10"/>
<text text-anchor="start" x="37.629" y="-15.4" font-family="sans-serif" font-size="14.00" fill="#000000"> &#160;Declarations</text>
<polygon fill="#8dd3c7" stroke="transparent" points="127,-10 127,-30 147,-30 147,-10 127,-10"/>
<text text-anchor="start" x="150.7251" y="-15.4" font-family="sans-serif" font-size="14.00" fill="#000000"> &#160;Module</text>
<polygon fill="#80b1d3" stroke="transparent" points="213,-10 213,-30 233,-30 233,-10 213,-10"/>
<text text-anchor="start" x="236.7812" y="-15.4" font-family="sans-serif" font-size="14.00" fill="#000000"> &#160;Bootstrap</text>
<polygon fill="#fdb462" stroke="transparent" points="310,-10 310,-30 330,-30 330,-10 310,-10"/>
<text text-anchor="start" x="333.6732" y="-15.4" font-family="sans-serif" font-size="14.00" fill="#000000"> &#160;Providers</text>
<polygon fill="#fb8072" stroke="transparent" points="406,-10 406,-30 426,-30 426,-10 406,-10"/>
<text text-anchor="start" x="429.7258" y="-15.4" font-family="sans-serif" font-size="14.00" fill="#000000"> &#160;Exports</text>
<g id="clust1" class="cluster">
<title>cluster_PracticePageModule</title>
<polygon fill="none" stroke="#000000" stroke-dasharray="1,5" points="93,-70 93,-195 403,-195 403,-70 93,-70"/>
</g>
<g id="clust2" class="cluster">
<title>cluster_PracticePageModule_declarations</title>
<polygon fill="none" stroke="#000000" points="101,-78 101,-130 395,-130 395,-78 101,-78"/>
</g>
<!-- DetailedPracticeModalPage -->
<g id="node1" class="node">
<title>DetailedPracticeModalPage</title>
<polygon fill="#ffffb3" stroke="#000000" points="387.2668,-122 214.7332,-122 214.7332,-86 387.2668,-86 387.2668,-122"/>
<text text-anchor="middle" x="301" y="-99.8" font-family="Times,serif" font-size="14.00" fill="#000000">DetailedPracticeModalPage</text>
</g>
<!-- PracticePageModule -->
<g id="node3" class="node">
<title>PracticePageModule</title>
<polygon fill="#8dd3c7" stroke="#000000" points="299.8445,-187 296.8445,-191 275.8445,-191 272.8445,-187 168.1555,-187 168.1555,-151 299.8445,-151 299.8445,-187"/>
<text text-anchor="middle" x="234" y="-164.8" font-family="Times,serif" font-size="14.00" fill="#000000">PracticePageModule</text>
</g>
<!-- DetailedPracticeModalPage&#45;&gt;PracticePageModule -->
<g id="edge1" class="edge">
<title>DetailedPracticeModalPage&#45;&gt;PracticePageModule</title>
<path fill="none" stroke="#000000" d="M257.3945,-122.1061C257.3945,-122.1061 257.3945,-140.991 257.3945,-140.991"/>
<polygon fill="#000000" stroke="#000000" points="253.8945,-140.9909 257.3945,-150.991 260.8945,-140.991 253.8945,-140.9909"/>
</g>
<!-- PracticePage -->
<g id="node2" class="node">
<title>PracticePage</title>
<polygon fill="#ffffb3" stroke="#000000" points="197.2951,-122 108.7049,-122 108.7049,-86 197.2951,-86 197.2951,-122"/>
<text text-anchor="middle" x="153" y="-99.8" font-family="Times,serif" font-size="14.00" fill="#000000">PracticePage</text>
</g>
<!-- PracticePage&#45;&gt;PracticePageModule -->
<g id="edge2" class="edge">
<title>PracticePage&#45;&gt;PracticePageModule</title>
<path fill="none" stroke="#000000" d="M182.6126,-122.1061C182.6126,-122.1061 182.6126,-140.991 182.6126,-140.991"/>
<polygon fill="#000000" stroke="#000000" points="179.1126,-140.9909 182.6126,-150.991 186.1126,-140.991 179.1126,-140.9909"/>
</g>
</g>
</svg>
