<?xml version="1.0" encoding="UTF-8" standalone="no"?>
<!DOCTYPE svg PUBLIC "-//W3C//DTD SVG 1.1//EN"
 "http://www.w3.org/Graphics/SVG/1.1/DTD/svg11.dtd">
<!-- Generated by graphviz version 2.40.1 (20161225.0304)
 -->
<!-- Title: dependencies Pages: 1 -->
<svg width="504pt" height="211pt"
 viewBox="0.00 0.00 504.00 211.00" xmlns="http://www.w3.org/2000/svg" xmlns:xlink="http://www.w3.org/1999/xlink">
<g id="graph0" class="graph" transform="scale(1 1) rotate(0) translate(4 207)">
<title>dependencies</title>
<polygon fill="#ffffff" stroke="transparent" points="-4,4 -4,-207 500,-207 500,4 -4,4"/>
<text text-anchor="start" x="227.0091" y="-42.4" font-family="sans-serif" font-weight="bold" font-size="14.00" fill="#000000">Legend</text>
<polygon fill="#ffffb3" stroke="transparent" points="14,-10 14,-30 34,-30 34,-10 14,-10"/>
<text text-anchor="start" x="37.629" y="-15.4" font-family="sans-serif" font-size="14.00" fill="#000000"> &#160;Declarations</text>
<polygon fill="#8dd3c7" stroke="transparent" points="127,-10 127,-30 147,-30 147,-10 127,-10"/>
<text text-anchor="start" x="150.7251" y="-15.4" font-family="sans-serif" font-size="14.00" fill="#000000"> &#160;Module</text>
<polygon fill="#80b1d3" stroke="transparent" points="213,-10 213,-30 233,-30 233,-10 213,-10"/>
<text text-anchor="start" x="236.7812" y="-15.4" font-family="sans-serif" font-size="14.00" fill="#000000"> &#160;Bootstrap</text>
<polygon fill="#fdb462" stroke="transparent" points="310,-10 310,-30 330,-30 330,-10 310,-10"/>
<text text-anchor="start" x="333.6732" y="-15.4" font-family="sans-serif" font-size="14.00" fill="#000000"> &#160;Providers</text>
<polygon fill="#fb8072" stroke="transparent" points="406,-10 406,-30 426,-30 426,-10 406,-10"/>
<text text-anchor="start" x="429.7258" y="-15.4" font-family="sans-serif" font-size="14.00" fill="#000000"> &#160;Exports</text>
<g id="clust1" class="cluster">
<title>cluster_PersonSearchPageModule</title>
<polygon fill="none" stroke="#000000" stroke-dasharray="1,5" points="114,-70 114,-195 382,-195 382,-70 114,-70"/>
</g>
<g id="clust2" class="cluster">
<title>cluster_PersonSearchPageModule_declarations</title>
<polygon fill="none" stroke="#000000" points="238,-78 238,-130 374,-130 374,-78 238,-78"/>
</g>
<g id="clust4" class="cluster">
<title>cluster_PersonSearchPageModule_imports</title>
<polygon fill="none" stroke="#000000" points="122,-78 122,-130 230,-130 230,-78 122,-78"/>
</g>
<!-- PersonSearchPage -->
<g id="node1" class="node">
<title>PersonSearchPage</title>
<polygon fill="#ffffb3" stroke="#000000" points="365.9019,-122 246.0981,-122 246.0981,-86 365.9019,-86 365.9019,-122"/>
<text text-anchor="middle" x="306" y="-99.8" font-family="Times,serif" font-size="14.00" fill="#000000">PersonSearchPage</text>
</g>
<!-- PersonSearchPageModule -->
<g id="node2" class="node">
<title>PersonSearchPageModule</title>
<polygon fill="#8dd3c7" stroke="#000000" points="329.451,-187 326.451,-191 305.451,-191 302.451,-187 166.549,-187 166.549,-151 329.451,-151 329.451,-187"/>
<text text-anchor="middle" x="248" y="-164.8" font-family="Times,serif" font-size="14.00" fill="#000000">PersonSearchPageModule</text>
</g>
<!-- PersonSearchPage&#45;&gt;PersonSearchPageModule -->
<g id="edge1" class="edge">
<title>PersonSearchPage&#45;&gt;PersonSearchPageModule</title>
<path fill="none" stroke="#000000" d="M287.8875,-122.1061C287.8875,-122.1061 287.8875,-140.991 287.8875,-140.991"/>
<polygon fill="#000000" stroke="#000000" points="284.3875,-140.9909 287.8875,-150.991 291.3875,-140.991 284.3875,-140.9909"/>
</g>
<!-- LoginModule -->
<g id="node3" class="node">
<title>LoginModule</title>
<polygon fill="#8dd3c7" stroke="#000000" points="222.493,-122 219.493,-126 198.493,-126 195.493,-122 129.507,-122 129.507,-86 222.493,-86 222.493,-122"/>
<text text-anchor="middle" x="176" y="-99.8" font-family="Times,serif" font-size="14.00" fill="#000000">LoginModule</text>
</g>
<!-- LoginModule&#45;&gt;PersonSearchPageModule -->
<g id="edge2" class="edge">
<title>LoginModule&#45;&gt;PersonSearchPageModule</title>
<path fill="none" stroke="#000000" d="M194.5105,-122.1061C194.5105,-122.1061 194.5105,-140.991 194.5105,-140.991"/>
<polygon fill="#000000" stroke="#000000" points="191.0106,-140.9909 194.5105,-150.991 198.0106,-140.991 191.0106,-140.9909"/>
</g>
</g>
</svg>
