<?xml version="1.0" encoding="UTF-8" standalone="no"?>
<!DOCTYPE svg PUBLIC "-//W3C//DTD SVG 1.1//EN"
 "http://www.w3.org/Graphics/SVG/1.1/DTD/svg11.dtd">
<!-- Generated by graphviz version 2.40.1 (20161225.0304)
 -->
<!-- Title: dependencies Pages: 1 -->
<svg width="504pt" height="211pt"
 viewBox="0.00 0.00 504.00 211.00" xmlns="http://www.w3.org/2000/svg" xmlns:xlink="http://www.w3.org/1999/xlink">
<g id="graph0" class="graph" transform="scale(1 1) rotate(0) translate(4 207)">
<title>dependencies</title>
<polygon fill="#ffffff" stroke="transparent" points="-4,4 -4,-207 500,-207 500,4 -4,4"/>
<text text-anchor="start" x="227.0091" y="-42.4" font-family="sans-serif" font-weight="bold" font-size="14.00" fill="#000000">Legend</text>
<polygon fill="#ffffb3" stroke="transparent" points="14,-10 14,-30 34,-30 34,-10 14,-10"/>
<text text-anchor="start" x="37.629" y="-15.4" font-family="sans-serif" font-size="14.00" fill="#000000"> &#160;Declarations</text>
<polygon fill="#8dd3c7" stroke="transparent" points="127,-10 127,-30 147,-30 147,-10 127,-10"/>
<text text-anchor="start" x="150.7251" y="-15.4" font-family="sans-serif" font-size="14.00" fill="#000000"> &#160;Module</text>
<polygon fill="#80b1d3" stroke="transparent" points="213,-10 213,-30 233,-30 233,-10 213,-10"/>
<text text-anchor="start" x="236.7812" y="-15.4" font-family="sans-serif" font-size="14.00" fill="#000000"> &#160;Bootstrap</text>
<polygon fill="#fdb462" stroke="transparent" points="310,-10 310,-30 330,-30 330,-10 310,-10"/>
<text text-anchor="start" x="333.6732" y="-15.4" font-family="sans-serif" font-size="14.00" fill="#000000"> &#160;Providers</text>
<polygon fill="#fb8072" stroke="transparent" points="406,-10 406,-30 426,-30 426,-10 406,-10"/>
<text text-anchor="start" x="429.7258" y="-15.4" font-family="sans-serif" font-size="14.00" fill="#000000"> &#160;Exports</text>
<g id="clust1" class="cluster">
<title>cluster_ImpressumPageModule</title>
<polygon fill="none" stroke="#000000" stroke-dasharray="1,5" points="99,-70 99,-195 397,-195 397,-70 99,-70"/>
</g>
<g id="clust2" class="cluster">
<title>cluster_ImpressumPageModule_declarations</title>
<polygon fill="none" stroke="#000000" points="107,-78 107,-130 389,-130 389,-78 107,-78"/>
</g>
<!-- ImpressumModalPage -->
<g id="node1" class="node">
<title>ImpressumModalPage</title>
<polygon fill="#ffffb3" stroke="#000000" points="380.9678,-122 239.0322,-122 239.0322,-86 380.9678,-86 380.9678,-122"/>
<text text-anchor="middle" x="310" y="-99.8" font-family="Times,serif" font-size="14.00" fill="#000000">ImpressumModalPage</text>
</g>
<!-- ImpressumPageModule -->
<g id="node3" class="node">
<title>ImpressumPageModule</title>
<polygon fill="#8dd3c7" stroke="#000000" points="319.4678,-187 316.4678,-191 295.4678,-191 292.4678,-187 170.5322,-187 170.5322,-151 319.4678,-151 319.4678,-187"/>
<text text-anchor="middle" x="245" y="-164.8" font-family="Times,serif" font-size="14.00" fill="#000000">ImpressumPageModule</text>
</g>
<!-- ImpressumModalPage&#45;&gt;ImpressumPageModule -->
<g id="edge1" class="edge">
<title>ImpressumModalPage&#45;&gt;ImpressumPageModule</title>
<path fill="none" stroke="#000000" d="M279.25,-122.1061C279.25,-122.1061 279.25,-140.991 279.25,-140.991"/>
<polygon fill="#000000" stroke="#000000" points="275.7501,-140.9909 279.25,-150.991 282.7501,-140.991 275.7501,-140.9909"/>
</g>
<!-- ImpressumPage -->
<g id="node2" class="node">
<title>ImpressumPage</title>
<polygon fill="#ffffb3" stroke="#000000" points="220.9188,-122 115.0812,-122 115.0812,-86 220.9188,-86 220.9188,-122"/>
<text text-anchor="middle" x="168" y="-99.8" font-family="Times,serif" font-size="14.00" fill="#000000">ImpressumPage</text>
</g>
<!-- ImpressumPage&#45;&gt;ImpressumPageModule -->
<g id="edge2" class="edge">
<title>ImpressumPage&#45;&gt;ImpressumPageModule</title>
<path fill="none" stroke="#000000" d="M195.6126,-122.1061C195.6126,-122.1061 195.6126,-140.991 195.6126,-140.991"/>
<polygon fill="#000000" stroke="#000000" points="192.1126,-140.9909 195.6126,-150.991 199.1126,-140.991 192.1126,-140.9909"/>
</g>
</g>
</svg>
