<?xml version="1.0" encoding="UTF-8" standalone="no"?>
<!DOCTYPE svg PUBLIC "-//W3C//DTD SVG 1.1//EN"
 "http://www.w3.org/Graphics/SVG/1.1/DTD/svg11.dtd">
<!-- Generated by graphviz version 2.40.1 (20161225.0304)
 -->
<!-- Title: dependencies Pages: 1 -->
<svg width="906pt" height="284pt"
 viewBox="0.00 0.00 906.00 284.00" xmlns="http://www.w3.org/2000/svg" xmlns:xlink="http://www.w3.org/1999/xlink">
<g id="graph0" class="graph" transform="scale(1 1) rotate(0) translate(4 280)">
<title>dependencies</title>
<polygon fill="#ffffff" stroke="transparent" points="-4,4 -4,-280 902,-280 902,4 -4,4"/>
<text text-anchor="start" x="428.0091" y="-42.4" font-family="sans-serif" font-weight="bold" font-size="14.00" fill="#000000">Legend</text>
<polygon fill="#ffffb3" stroke="transparent" points="215,-10 215,-30 235,-30 235,-10 215,-10"/>
<text text-anchor="start" x="238.629" y="-15.4" font-family="sans-serif" font-size="14.00" fill="#000000"> &#160;Declarations</text>
<polygon fill="#8dd3c7" stroke="transparent" points="328,-10 328,-30 348,-30 348,-10 328,-10"/>
<text text-anchor="start" x="351.7251" y="-15.4" font-family="sans-serif" font-size="14.00" fill="#000000"> &#160;Module</text>
<polygon fill="#80b1d3" stroke="transparent" points="414,-10 414,-30 434,-30 434,-10 414,-10"/>
<text text-anchor="start" x="437.7812" y="-15.4" font-family="sans-serif" font-size="14.00" fill="#000000"> &#160;Bootstrap</text>
<polygon fill="#fdb462" stroke="transparent" points="511,-10 511,-30 531,-30 531,-10 511,-10"/>
<text text-anchor="start" x="534.6732" y="-15.4" font-family="sans-serif" font-size="14.00" fill="#000000"> &#160;Providers</text>
<polygon fill="#fb8072" stroke="transparent" points="607,-10 607,-30 627,-30 627,-10 607,-10"/>
<text text-anchor="start" x="630.7258" y="-15.4" font-family="sans-serif" font-size="14.00" fill="#000000"> &#160;Exports</text>
<g id="clust1" class="cluster">
<title>cluster_AppModule</title>
<polygon fill="none" stroke="#000000" stroke-dasharray="1,5" points="8,-70 8,-268 890,-268 890,-70 8,-70"/>
</g>
<g id="clust2" class="cluster">
<title>cluster_AppModule_declarations</title>
<polygon fill="none" stroke="#000000" points="760,-78 760,-130 882,-130 882,-78 760,-78"/>
</g>
<g id="clust4" class="cluster">
<title>cluster_AppModule_imports</title>
<polygon fill="none" stroke="#000000" points="608,-78 608,-130 752,-130 752,-78 608,-78"/>
</g>
<g id="clust6" class="cluster">
<title>cluster_AppModule_bootstrap</title>
<polygon fill="none" stroke="#000000" points="463,-208 463,-260 587,-260 587,-208 463,-208"/>
</g>
<g id="clust7" class="cluster">
<title>cluster_AppModule_providers</title>
<polygon fill="none" stroke="#000000" points="16,-78 16,-130 600,-130 600,-78 16,-78"/>
</g>
<!-- AppComponent -->
<g id="node1" class="node">
<title>AppComponent</title>
<polygon fill="#ffffb3" stroke="#000000" points="873.9399,-122 768.0601,-122 768.0601,-86 873.9399,-86 873.9399,-122"/>
<text text-anchor="middle" x="821" y="-99.8" font-family="Times,serif" font-size="14.00" fill="#000000">AppComponent</text>
</g>
<!-- AppModule -->
<g id="node2" class="node">
<title>AppModule</title>
<polygon fill="#8dd3c7" stroke="#000000" points="566.6571,-187 563.6571,-191 542.6571,-191 539.6571,-187 483.3429,-187 483.3429,-151 566.6571,-151 566.6571,-187"/>
<text text-anchor="middle" x="525" y="-164.8" font-family="Times,serif" font-size="14.00" fill="#000000">AppModule</text>
</g>
<!-- AppComponent&#45;&gt;AppModule -->
<g id="edge1" class="edge">
<title>AppComponent&#45;&gt;AppModule</title>
<path fill="none" stroke="#000000" d="M821,-122.2843C821,-143.3211 821,-175 821,-175 821,-175 576.7818,-175 576.7818,-175"/>
<polygon fill="#000000" stroke="#000000" points="576.7818,-171.5001 566.7818,-175 576.7817,-178.5001 576.7818,-171.5001"/>
</g>
<!-- AppComponent  -->
<g id="node4" class="node">
<title>AppComponent </title>
<polygon fill="#80b1d3" stroke="#000000" points="579.439,-252 470.561,-252 470.561,-216 579.439,-216 579.439,-252"/>
<text text-anchor="middle" x="525" y="-229.8" font-family="Times,serif" font-size="14.00" fill="#000000">AppComponent </text>
</g>
<!-- AppModule&#45;&gt;AppComponent  -->
<g id="edge3" class="edge">
<title>AppModule&#45;&gt;AppComponent </title>
<path fill="none" stroke="#000000" stroke-dasharray="1,5" d="M525,-187.1061C525,-187.1061 525,-205.991 525,-205.991"/>
<polygon fill="#000000" stroke="#000000" points="521.5001,-205.9909 525,-215.991 528.5001,-205.991 521.5001,-205.9909"/>
</g>
<!-- AppRoutingModule -->
<g id="node3" class="node">
<title>AppRoutingModule</title>
<polygon fill="#8dd3c7" stroke="#000000" points="744.2744,-122 741.2744,-126 720.2744,-126 717.2744,-122 615.7256,-122 615.7256,-86 744.2744,-86 744.2744,-122"/>
<text text-anchor="middle" x="680" y="-99.8" font-family="Times,serif" font-size="14.00" fill="#000000">AppRoutingModule</text>
</g>
<!-- AppRoutingModule&#45;&gt;AppModule -->
<g id="edge2" class="edge">
<title>AppRoutingModule&#45;&gt;AppModule</title>
<path fill="none" stroke="#000000" d="M680,-122.0225C680,-139.3734 680,-163 680,-163 680,-163 576.9452,-163 576.9452,-163"/>
<polygon fill="#000000" stroke="#000000" points="576.9453,-159.5001 566.9452,-163 576.9452,-166.5001 576.9453,-159.5001"/>
</g>
<!-- ConfigService -->
<g id="node5" class="node">
<title>ConfigService</title>
<ellipse fill="#fdb462" stroke="#000000" cx="525" cy="-104" rx="66.6325" ry="18"/>
<text text-anchor="middle" x="525" y="-99.8" font-family="Times,serif" font-size="14.00" fill="#000000">ConfigService</text>
</g>
<!-- ConfigService&#45;&gt;AppModule -->
<g id="edge4" class="edge">
<title>ConfigService&#45;&gt;AppModule</title>
<path fill="none" stroke="#000000" d="M525,-122.1061C525,-122.1061 525,-140.991 525,-140.991"/>
<polygon fill="#000000" stroke="#000000" points="521.5001,-140.9909 525,-150.991 528.5001,-140.991 521.5001,-140.9909"/>
</g>
<!-- UPLoginProvider -->
<g id="node6" class="node">
<title>UPLoginProvider</title>
<ellipse fill="#fdb462" stroke="#000000" cx="360" cy="-104" rx="79.8972" ry="18"/>
<text text-anchor="middle" x="360" y="-99.8" font-family="Times,serif" font-size="14.00" fill="#000000">UPLoginProvider</text>
</g>
<!-- UPLoginProvider&#45;&gt;AppModule -->
<g id="edge5" class="edge">
<title>UPLoginProvider&#45;&gt;AppModule</title>
<path fill="none" stroke="#000000" d="M360,-122.0225C360,-139.3734 360,-163 360,-163 360,-163 472.9366,-163 472.9366,-163"/>
<polygon fill="#000000" stroke="#000000" points="472.9366,-166.5001 482.9366,-163 472.9366,-159.5001 472.9366,-166.5001"/>
</g>
<!-- WebserviceWrapperService -->
<g id="node7" class="node">
<title>WebserviceWrapperService</title>
<ellipse fill="#fdb462" stroke="#000000" cx="143" cy="-104" rx="119.1804" ry="18"/>
<text text-anchor="middle" x="143" y="-99.8" font-family="Times,serif" font-size="14.00" fill="#000000">WebserviceWrapperService</text>
</g>
<!-- WebserviceWrapperService&#45;&gt;AppModule -->
<g id="edge6" class="edge">
<title>WebserviceWrapperService&#45;&gt;AppModule</title>
<path fill="none" stroke="#000000" d="M143,-122.2843C143,-143.3211 143,-175 143,-175 143,-175 473.0266,-175 473.0266,-175"/>
<polygon fill="#000000" stroke="#000000" points="473.0266,-178.5001 483.0266,-175 473.0266,-171.5001 473.0266,-178.5001"/>
</g>
</g>
</svg>
