<?xml version="1.0" encoding="UTF-8" standalone="no"?>
<!DOCTYPE svg PUBLIC "-//W3C//DTD SVG 1.1//EN"
 "http://www.w3.org/Graphics/SVG/1.1/DTD/svg11.dtd">
<!-- Generated by graphviz version 2.40.1 (20161225.0304)
 -->
<!-- Title: dependencies Pages: 1 -->
<svg width="504pt" height="211pt"
 viewBox="0.00 0.00 504.00 211.00" xmlns="http://www.w3.org/2000/svg" xmlns:xlink="http://www.w3.org/1999/xlink">
<g id="graph0" class="graph" transform="scale(1 1) rotate(0) translate(4 207)">
<title>dependencies</title>
<polygon fill="#ffffff" stroke="transparent" points="-4,4 -4,-207 500,-207 500,4 -4,4"/>
<text text-anchor="start" x="227.0091" y="-42.4" font-family="sans-serif" font-weight="bold" font-size="14.00" fill="#000000">Legend</text>
<polygon fill="#ffffb3" stroke="transparent" points="14,-10 14,-30 34,-30 34,-10 14,-10"/>
<text text-anchor="start" x="37.629" y="-15.4" font-family="sans-serif" font-size="14.00" fill="#000000"> &#160;Declarations</text>
<polygon fill="#8dd3c7" stroke="transparent" points="127,-10 127,-30 147,-30 147,-10 127,-10"/>
<text text-anchor="start" x="150.7251" y="-15.4" font-family="sans-serif" font-size="14.00" fill="#000000"> &#160;Module</text>
<polygon fill="#80b1d3" stroke="transparent" points="213,-10 213,-30 233,-30 233,-10 213,-10"/>
<text text-anchor="start" x="236.7812" y="-15.4" font-family="sans-serif" font-size="14.00" fill="#000000"> &#160;Bootstrap</text>
<polygon fill="#fdb462" stroke="transparent" points="310,-10 310,-30 330,-30 330,-10 310,-10"/>
<text text-anchor="start" x="333.6732" y="-15.4" font-family="sans-serif" font-size="14.00" fill="#000000"> &#160;Providers</text>
<polygon fill="#fb8072" stroke="transparent" points="406,-10 406,-30 426,-30 426,-10 406,-10"/>
<text text-anchor="start" x="429.7258" y="-15.4" font-family="sans-serif" font-size="14.00" fill="#000000"> &#160;Exports</text>
<g id="clust1" class="cluster">
<title>cluster_LibrarySearchPageModule</title>
<polygon fill="none" stroke="#000000" stroke-dasharray="1,5" points="89,-70 89,-195 407,-195 407,-70 89,-70"/>
</g>
<g id="clust2" class="cluster">
<title>cluster_LibrarySearchPageModule_declarations</title>
<polygon fill="none" stroke="#000000" points="97,-78 97,-130 399,-130 399,-78 97,-78"/>
</g>
<!-- BookDetailModalPage -->
<g id="node1" class="node">
<title>BookDetailModalPage</title>
<polygon fill="#ffffb3" stroke="#000000" points="391.3061,-122 246.6939,-122 246.6939,-86 391.3061,-86 391.3061,-122"/>
<text text-anchor="middle" x="319" y="-99.8" font-family="Times,serif" font-size="14.00" fill="#000000">BookDetailModalPage</text>
</g>
<!-- LibrarySearchPageModule -->
<g id="node3" class="node">
<title>LibrarySearchPageModule</title>
<polygon fill="#8dd3c7" stroke="#000000" points="331.3277,-187 328.3277,-191 307.3277,-191 304.3277,-187 164.6723,-187 164.6723,-151 331.3277,-151 331.3277,-187"/>
<text text-anchor="middle" x="248" y="-164.8" font-family="Times,serif" font-size="14.00" fill="#000000">LibrarySearchPageModule</text>
</g>
<!-- BookDetailModalPage&#45;&gt;LibrarySearchPageModule -->
<g id="edge1" class="edge">
<title>BookDetailModalPage&#45;&gt;LibrarySearchPageModule</title>
<path fill="none" stroke="#000000" d="M289.1305,-122.1061C289.1305,-122.1061 289.1305,-140.991 289.1305,-140.991"/>
<polygon fill="#000000" stroke="#000000" points="285.6305,-140.9909 289.1305,-150.991 292.6305,-140.991 285.6305,-140.9909"/>
</g>
<!-- LibrarySearchPage -->
<g id="node2" class="node">
<title>LibrarySearchPage</title>
<polygon fill="#ffffb3" stroke="#000000" points="228.7781,-122 105.2219,-122 105.2219,-86 228.7781,-86 228.7781,-122"/>
<text text-anchor="middle" x="167" y="-99.8" font-family="Times,serif" font-size="14.00" fill="#000000">LibrarySearchPage</text>
</g>
<!-- LibrarySearchPage&#45;&gt;LibrarySearchPageModule -->
<g id="edge2" class="edge">
<title>LibrarySearchPage&#45;&gt;LibrarySearchPageModule</title>
<path fill="none" stroke="#000000" d="M196.6126,-122.1061C196.6126,-122.1061 196.6126,-140.991 196.6126,-140.991"/>
<polygon fill="#000000" stroke="#000000" points="193.1126,-140.9909 196.6126,-150.991 200.1126,-140.991 193.1126,-140.9909"/>
</g>
</g>
</svg>
