<?xml version="1.0" encoding="UTF-8" standalone="no"?>
<!DOCTYPE svg PUBLIC "-//W3C//DTD SVG 1.1//EN"
 "http://www.w3.org/Graphics/SVG/1.1/DTD/svg11.dtd">
<!-- Generated by graphviz version 2.40.1 (20161225.0304)
 -->
<!-- Title: dependencies Pages: 1 -->
<svg width="504pt" height="211pt"
 viewBox="0.00 0.00 504.00 211.00" xmlns="http://www.w3.org/2000/svg" xmlns:xlink="http://www.w3.org/1999/xlink">
<g id="graph0" class="graph" transform="scale(1 1) rotate(0) translate(4 207)">
<title>dependencies</title>
<polygon fill="#ffffff" stroke="transparent" points="-4,4 -4,-207 500,-207 500,4 -4,4"/>
<text text-anchor="start" x="227.0091" y="-42.4" font-family="sans-serif" font-weight="bold" font-size="14.00" fill="#000000">Legend</text>
<polygon fill="#ffffb3" stroke="transparent" points="14,-10 14,-30 34,-30 34,-10 14,-10"/>
<text text-anchor="start" x="37.629" y="-15.4" font-family="sans-serif" font-size="14.00" fill="#000000"> &#160;Declarations</text>
<polygon fill="#8dd3c7" stroke="transparent" points="127,-10 127,-30 147,-30 147,-10 127,-10"/>
<text text-anchor="start" x="150.7251" y="-15.4" font-family="sans-serif" font-size="14.00" fill="#000000"> &#160;Module</text>
<polygon fill="#80b1d3" stroke="transparent" points="213,-10 213,-30 233,-30 233,-10 213,-10"/>
<text text-anchor="start" x="236.7812" y="-15.4" font-family="sans-serif" font-size="14.00" fill="#000000"> &#160;Bootstrap</text>
<polygon fill="#fdb462" stroke="transparent" points="310,-10 310,-30 330,-30 330,-10 310,-10"/>
<text text-anchor="start" x="333.6732" y="-15.4" font-family="sans-serif" font-size="14.00" fill="#000000"> &#160;Providers</text>
<polygon fill="#fb8072" stroke="transparent" points="406,-10 406,-30 426,-30 426,-10 406,-10"/>
<text text-anchor="start" x="429.7258" y="-15.4" font-family="sans-serif" font-size="14.00" fill="#000000"> &#160;Exports</text>
<g id="clust1" class="cluster">
<title>cluster_TimetablePageModule</title>
<polygon fill="none" stroke="#000000" stroke-dasharray="1,5" points="59,-70 59,-195 437,-195 437,-70 59,-70"/>
</g>
<g id="clust2" class="cluster">
<title>cluster_TimetablePageModule_declarations</title>
<polygon fill="none" stroke="#000000" points="183,-78 183,-130 429,-130 429,-78 183,-78"/>
</g>
<g id="clust5" class="cluster">
<title>cluster_TimetablePageModule_imports</title>
<polygon fill="none" stroke="#000000" points="67,-78 67,-130 175,-130 175,-78 67,-78"/>
</g>
<!-- EventModalPage -->
<g id="node1" class="node">
<title>EventModalPage</title>
<polygon fill="#ffffb3" stroke="#000000" points="421.4202,-122 308.5798,-122 308.5798,-86 421.4202,-86 421.4202,-122"/>
<text text-anchor="middle" x="365" y="-99.8" font-family="Times,serif" font-size="14.00" fill="#000000">EventModalPage</text>
</g>
<!-- TimetablePageModule -->
<g id="node3" class="node">
<title>TimetablePageModule</title>
<polygon fill="#8dd3c7" stroke="#000000" points="312.5212,-187 309.5212,-191 288.5212,-191 285.5212,-187 169.4788,-187 169.4788,-151 312.5212,-151 312.5212,-187"/>
<text text-anchor="middle" x="241" y="-164.8" font-family="Times,serif" font-size="14.00" fill="#000000">TimetablePageModule</text>
</g>
<!-- EventModalPage&#45;&gt;TimetablePageModule -->
<g id="edge1" class="edge">
<title>EventModalPage&#45;&gt;TimetablePageModule</title>
<path fill="none" stroke="#000000" d="M308.6691,-104C303.3463,-104 299.8878,-104 299.8878,-104 299.8878,-104 299.8878,-140.8939 299.8878,-140.8939"/>
<polygon fill="#000000" stroke="#000000" points="296.3879,-140.8938 299.8878,-150.8939 303.3879,-140.8939 296.3879,-140.8938"/>
</g>
<!-- TimetablePage -->
<g id="node2" class="node">
<title>TimetablePage</title>
<polygon fill="#ffffb3" stroke="#000000" points="290.9706,-122 191.0294,-122 191.0294,-86 290.9706,-86 290.9706,-122"/>
<text text-anchor="middle" x="241" y="-99.8" font-family="Times,serif" font-size="14.00" fill="#000000">TimetablePage</text>
</g>
<!-- TimetablePage&#45;&gt;TimetablePageModule -->
<g id="edge2" class="edge">
<title>TimetablePage&#45;&gt;TimetablePageModule</title>
<path fill="none" stroke="#000000" d="M241,-122.1061C241,-122.1061 241,-140.991 241,-140.991"/>
<polygon fill="#000000" stroke="#000000" points="237.5001,-140.9909 241,-150.991 244.5001,-140.991 237.5001,-140.9909"/>
</g>
<!-- LoginModule -->
<g id="node4" class="node">
<title>LoginModule</title>
<polygon fill="#8dd3c7" stroke="#000000" points="167.493,-122 164.493,-126 143.493,-126 140.493,-122 74.507,-122 74.507,-86 167.493,-86 167.493,-122"/>
<text text-anchor="middle" x="121" y="-99.8" font-family="Times,serif" font-size="14.00" fill="#000000">LoginModule</text>
</g>
<!-- LoginModule&#45;&gt;TimetablePageModule -->
<g id="edge3" class="edge">
<title>LoginModule&#45;&gt;TimetablePageModule</title>
<path fill="none" stroke="#000000" d="M167.5879,-104C174.9161,-104 180.1273,-104 180.1273,-104 180.1273,-104 180.1273,-140.8939 180.1273,-140.8939"/>
<polygon fill="#000000" stroke="#000000" points="176.6273,-140.8938 180.1273,-150.8939 183.6273,-140.8939 176.6273,-140.8938"/>
</g>
</g>
</svg>
