<?xml version="1.0" encoding="UTF-8" standalone="no"?>
<!DOCTYPE svg PUBLIC "-//W3C//DTD SVG 1.1//EN"
 "http://www.w3.org/Graphics/SVG/1.1/DTD/svg11.dtd">
<!-- Generated by graphviz version 2.40.1 (20161225.0304)
 -->
<!-- Title: dependencies Pages: 1 -->
<svg width="2478pt" height="284pt"
 viewBox="0.00 0.00 2478.00 284.00" xmlns="http://www.w3.org/2000/svg" xmlns:xlink="http://www.w3.org/1999/xlink">
<g id="graph0" class="graph" transform="scale(1 1) rotate(0) translate(4 280)">
<title>dependencies</title>
<polygon fill="#ffffff" stroke="transparent" points="-4,4 -4,-280 2474,-280 2474,4 -4,4"/>
<text text-anchor="start" x="1214.0091" y="-42.4" font-family="sans-serif" font-weight="bold" font-size="14.00" fill="#000000">Legend</text>
<polygon fill="#ffffb3" stroke="transparent" points="1001,-10 1001,-30 1021,-30 1021,-10 1001,-10"/>
<text text-anchor="start" x="1024.629" y="-15.4" font-family="sans-serif" font-size="14.00" fill="#000000"> &#160;Declarations</text>
<polygon fill="#8dd3c7" stroke="transparent" points="1114,-10 1114,-30 1134,-30 1134,-10 1114,-10"/>
<text text-anchor="start" x="1137.7251" y="-15.4" font-family="sans-serif" font-size="14.00" fill="#000000"> &#160;Module</text>
<polygon fill="#80b1d3" stroke="transparent" points="1200,-10 1200,-30 1220,-30 1220,-10 1200,-10"/>
<text text-anchor="start" x="1223.7812" y="-15.4" font-family="sans-serif" font-size="14.00" fill="#000000"> &#160;Bootstrap</text>
<polygon fill="#fdb462" stroke="transparent" points="1297,-10 1297,-30 1317,-30 1317,-10 1297,-10"/>
<text text-anchor="start" x="1320.6732" y="-15.4" font-family="sans-serif" font-size="14.00" fill="#000000"> &#160;Providers</text>
<polygon fill="#fb8072" stroke="transparent" points="1393,-10 1393,-30 1413,-30 1413,-10 1393,-10"/>
<text text-anchor="start" x="1416.7258" y="-15.4" font-family="sans-serif" font-size="14.00" fill="#000000"> &#160;Exports</text>
<g id="clust1" class="cluster">
<title>cluster_ComponentsModule</title>
<polygon fill="none" stroke="#000000" stroke-dasharray="1,5" points="8,-70 8,-268 2462,-268 2462,-70 8,-70"/>
</g>
<g id="clust2" class="cluster">
<title>cluster_ComponentsModule_declarations</title>
<polygon fill="none" stroke="#000000" points="16,-78 16,-130 2454,-130 2454,-78 16,-78"/>
</g>
<g id="clust18" class="cluster">
<title>cluster_ComponentsModule_exports</title>
<polygon fill="none" stroke="#000000" points="86,-208 86,-260 2381,-260 2381,-208 86,-208"/>
</g>
<!-- BookListComponent -->
<g id="node1" class="node">
<title>BookListComponent</title>
<polygon fill="#ffffb3" stroke="#000000" points="2445.9482,-122 2312.0518,-122 2312.0518,-86 2445.9482,-86 2445.9482,-122"/>
<text text-anchor="middle" x="2379" y="-99.8" font-family="Times,serif" font-size="14.00" fill="#000000">BookListComponent</text>
</g>
<!-- ComponentsModule -->
<g id="node15" class="node">
<title>ComponentsModule</title>
<polygon fill="#8dd3c7" stroke="#000000" points="1269.3272,-187 1266.3272,-191 1245.3272,-191 1242.3272,-187 1138.6728,-187 1138.6728,-151 1269.3272,-151 1269.3272,-187"/>
<text text-anchor="middle" x="1204" y="-164.8" font-family="Times,serif" font-size="14.00" fill="#000000">ComponentsModule</text>
</g>
<!-- BookListComponent&#45;&gt;ComponentsModule -->
<g id="edge1" class="edge">
<title>BookListComponent&#45;&gt;ComponentsModule</title>
<path fill="none" stroke="#000000" d="M2342.875,-122.1686C2342.875,-141.0898 2342.875,-168 2342.875,-168 2342.875,-168 1279.3214,-168 1279.3214,-168"/>
<polygon fill="#000000" stroke="#000000" points="1279.3214,-164.5001 1269.3214,-168 1279.3213,-171.5001 1279.3214,-164.5001"/>
</g>
<!-- BookLocationComponent -->
<g id="node2" class="node">
<title>BookLocationComponent</title>
<polygon fill="#ffffb3" stroke="#000000" points="2294.9326,-122 2133.0674,-122 2133.0674,-86 2294.9326,-86 2294.9326,-122"/>
<text text-anchor="middle" x="2214" y="-99.8" font-family="Times,serif" font-size="14.00" fill="#000000">BookLocationComponent</text>
</g>
<!-- BookLocationComponent&#45;&gt;ComponentsModule -->
<g id="edge2" class="edge">
<title>BookLocationComponent&#45;&gt;ComponentsModule</title>
<path fill="none" stroke="#000000" d="M2175.875,-122.302C2175.875,-140.2699 2175.875,-165 2175.875,-165 2175.875,-165 1279.2766,-165 1279.2766,-165"/>
<polygon fill="#000000" stroke="#000000" points="1279.2766,-161.5001 1269.2766,-165 1279.2765,-168.5001 1279.2766,-161.5001"/>
</g>
<!-- CampusMapFeatureModalComponent -->
<g id="node3" class="node">
<title>CampusMapFeatureModalComponent</title>
<polygon fill="#ffffb3" stroke="#000000" points="2115.9058,-122 1884.0942,-122 1884.0942,-86 2115.9058,-86 2115.9058,-122"/>
<text text-anchor="middle" x="2000" y="-99.8" font-family="Times,serif" font-size="14.00" fill="#000000">CampusMapFeatureModalComponent</text>
</g>
<!-- CampusMapFeatureModalComponent&#45;&gt;ComponentsModule -->
<g id="edge3" class="edge">
<title>CampusMapFeatureModalComponent&#45;&gt;ComponentsModule</title>
<path fill="none" stroke="#000000" d="M1959.875,-122.0225C1959.875,-139.3734 1959.875,-163 1959.875,-163 1959.875,-163 1279.4278,-163 1279.4278,-163"/>
<polygon fill="#000000" stroke="#000000" points="1279.4279,-159.5001 1269.4278,-163 1279.4278,-166.5001 1279.4279,-159.5001"/>
</g>
<!-- CampusReorderModalPage -->
<g id="node4" class="node">
<title>CampusReorderModalPage</title>
<polygon fill="#ffffb3" stroke="#000000" points="1866.2352,-122 1695.7648,-122 1695.7648,-86 1866.2352,-86 1866.2352,-122"/>
<text text-anchor="middle" x="1781" y="-99.8" font-family="Times,serif" font-size="14.00" fill="#000000">CampusReorderModalPage</text>
</g>
<!-- CampusReorderModalPage&#45;&gt;ComponentsModule -->
<g id="edge4" class="edge">
<title>CampusReorderModalPage&#45;&gt;ComponentsModule</title>
<path fill="none" stroke="#000000" d="M1738.9378,-122.027C1738.9378,-138.3976 1738.9378,-160 1738.9378,-160 1738.9378,-160 1279.3263,-160 1279.3263,-160"/>
<polygon fill="#000000" stroke="#000000" points="1279.3263,-156.5001 1269.3263,-160 1279.3262,-163.5001 1279.3263,-156.5001"/>
</g>
<!-- CampusTabComponent -->
<g id="node5" class="node">
<title>CampusTabComponent</title>
<polygon fill="#ffffb3" stroke="#000000" points="1677.486,-122 1528.514,-122 1528.514,-86 1677.486,-86 1677.486,-122"/>
<text text-anchor="middle" x="1603" y="-99.8" font-family="Times,serif" font-size="14.00" fill="#000000">CampusTabComponent</text>
</g>
<!-- CampusTabComponent&#45;&gt;ComponentsModule -->
<g id="edge5" class="edge">
<title>CampusTabComponent&#45;&gt;ComponentsModule</title>
<path fill="none" stroke="#000000" d="M1569.9823,-122.2396C1569.9823,-137.5706 1569.9823,-157 1569.9823,-157 1569.9823,-157 1279.4303,-157 1279.4303,-157"/>
<polygon fill="#000000" stroke="#000000" points="1279.4303,-153.5001 1269.4303,-157 1279.4303,-160.5001 1279.4303,-153.5001"/>
</g>
<!-- CourseDataComponent -->
<g id="node6" class="node">
<title>CourseDataComponent</title>
<polygon fill="#ffffb3" stroke="#000000" points="1510.9158,-122 1363.0842,-122 1363.0842,-86 1510.9158,-86 1510.9158,-122"/>
<text text-anchor="middle" x="1437" y="-99.8" font-family="Times,serif" font-size="14.00" fill="#000000">CourseDataComponent</text>
</g>
<!-- CourseDataComponent&#45;&gt;ComponentsModule -->
<g id="edge6" class="edge">
<title>CourseDataComponent&#45;&gt;ComponentsModule</title>
<path fill="none" stroke="#000000" d="M1402.9017,-122.0511C1402.9017,-136.373 1402.9017,-154 1402.9017,-154 1402.9017,-154 1279.4033,-154 1279.4033,-154"/>
<polygon fill="#000000" stroke="#000000" points="1279.4034,-150.5001 1269.4033,-154 1279.4033,-157.5001 1279.4034,-150.5001"/>
</g>
<!-- DatePickerComponent -->
<g id="node7" class="node">
<title>DatePickerComponent</title>
<polygon fill="#ffffb3" stroke="#000000" points="1345.5226,-122 1202.4774,-122 1202.4774,-86 1345.5226,-86 1345.5226,-122"/>
<text text-anchor="middle" x="1274" y="-99.8" font-family="Times,serif" font-size="14.00" fill="#000000">DatePickerComponent</text>
</g>
<!-- DatePickerComponent&#45;&gt;ComponentsModule -->
<g id="edge7" class="edge">
<title>DatePickerComponent&#45;&gt;ComponentsModule</title>
<path fill="none" stroke="#000000" d="M1235.7013,-122.1061C1235.7013,-122.1061 1235.7013,-140.991 1235.7013,-140.991"/>
<polygon fill="#000000" stroke="#000000" points="1232.2013,-140.9909 1235.7013,-150.991 1239.2013,-140.991 1232.2013,-140.9909"/>
</g>
<!-- EventViewComponent -->
<g id="node8" class="node">
<title>EventViewComponent</title>
<polygon fill="#ffffb3" stroke="#000000" points="1184.3089,-122 1039.6911,-122 1039.6911,-86 1184.3089,-86 1184.3089,-122"/>
<text text-anchor="middle" x="1112" y="-99.8" font-family="Times,serif" font-size="14.00" fill="#000000">EventViewComponent</text>
</g>
<!-- EventViewComponent&#45;&gt;ComponentsModule -->
<g id="edge8" class="edge">
<title>EventViewComponent&#45;&gt;ComponentsModule</title>
<path fill="none" stroke="#000000" d="M1161.4954,-122.1061C1161.4954,-122.1061 1161.4954,-140.991 1161.4954,-140.991"/>
<polygon fill="#000000" stroke="#000000" points="1157.9955,-140.9909 1161.4954,-150.991 1164.9955,-140.991 1157.9955,-140.9909"/>
</g>
<!-- FooterDisclaimerComponent -->
<g id="node9" class="node">
<title>FooterDisclaimerComponent</title>
<polygon fill="#ffffb3" stroke="#000000" points="1021.799,-122 842.201,-122 842.201,-86 1021.799,-86 1021.799,-122"/>
<text text-anchor="middle" x="932" y="-99.8" font-family="Times,serif" font-size="14.00" fill="#000000">FooterDisclaimerComponent</text>
</g>
<!-- FooterDisclaimerComponent&#45;&gt;ComponentsModule -->
<g id="edge9" class="edge">
<title>FooterDisclaimerComponent&#45;&gt;ComponentsModule</title>
<path fill="none" stroke="#000000" d="M975.625,-122.0511C975.625,-136.373 975.625,-154 975.625,-154 975.625,-154 1128.5569,-154 1128.5569,-154"/>
<polygon fill="#000000" stroke="#000000" points="1128.5569,-157.5001 1138.5569,-154 1128.5569,-150.5001 1128.5569,-157.5001"/>
</g>
<!-- GradesTableComponent -->
<g id="node10" class="node">
<title>GradesTableComponent</title>
<polygon fill="#ffffb3" stroke="#000000" points="824.3459,-122 671.6541,-122 671.6541,-86 824.3459,-86 824.3459,-122"/>
<text text-anchor="middle" x="748" y="-99.8" font-family="Times,serif" font-size="14.00" fill="#000000">GradesTableComponent</text>
</g>
<!-- GradesTableComponent&#45;&gt;ComponentsModule -->
<g id="edge10" class="edge">
<title>GradesTableComponent&#45;&gt;ComponentsModule</title>
<path fill="none" stroke="#000000" d="M789.625,-122.2396C789.625,-137.5706 789.625,-157 789.625,-157 789.625,-157 1128.7981,-157 1128.7981,-157"/>
<polygon fill="#000000" stroke="#000000" points="1128.7981,-160.5001 1138.7981,-157 1128.798,-153.5001 1128.7981,-160.5001"/>
</g>
<!-- HintBoxComponent -->
<g id="node11" class="node">
<title>HintBoxComponent</title>
<polygon fill="#ffffb3" stroke="#000000" points="653.5576,-122 524.4424,-122 524.4424,-86 653.5576,-86 653.5576,-122"/>
<text text-anchor="middle" x="589" y="-99.8" font-family="Times,serif" font-size="14.00" fill="#000000">HintBoxComponent</text>
</g>
<!-- HintBoxComponent&#45;&gt;ComponentsModule -->
<g id="edge11" class="edge">
<title>HintBoxComponent&#45;&gt;ComponentsModule</title>
<path fill="none" stroke="#000000" d="M628.625,-122.027C628.625,-138.3976 628.625,-160 628.625,-160 628.625,-160 1128.5574,-160 1128.5574,-160"/>
<polygon fill="#000000" stroke="#000000" points="1128.5574,-163.5001 1138.5574,-160 1128.5573,-156.5001 1128.5574,-163.5001"/>
</g>
<!-- LectureListComponent -->
<g id="node12" class="node">
<title>LectureListComponent</title>
<polygon fill="#ffffb3" stroke="#000000" points="505.8585,-122 360.1415,-122 360.1415,-86 505.8585,-86 505.8585,-122"/>
<text text-anchor="middle" x="433" y="-99.8" font-family="Times,serif" font-size="14.00" fill="#000000">LectureListComponent</text>
</g>
<!-- LectureListComponent&#45;&gt;ComponentsModule -->
<g id="edge12" class="edge">
<title>LectureListComponent&#45;&gt;ComponentsModule</title>
<path fill="none" stroke="#000000" d="M471.125,-122.0225C471.125,-139.3734 471.125,-163 471.125,-163 471.125,-163 1128.6401,-163 1128.6401,-163"/>
<polygon fill="#000000" stroke="#000000" points="1128.6401,-166.5001 1138.6401,-163 1128.64,-159.5001 1128.6401,-166.5001"/>
</g>
<!-- MensaMealComponent -->
<g id="node13" class="node">
<title>MensaMealComponent</title>
<polygon fill="#ffffb3" stroke="#000000" points="341.9158,-122 194.0842,-122 194.0842,-86 341.9158,-86 341.9158,-122"/>
<text text-anchor="middle" x="268" y="-99.8" font-family="Times,serif" font-size="14.00" fill="#000000">MensaMealComponent</text>
</g>
<!-- MensaMealComponent&#45;&gt;ComponentsModule -->
<g id="edge13" class="edge">
<title>MensaMealComponent&#45;&gt;ComponentsModule</title>
<path fill="none" stroke="#000000" d="M304.625,-122.302C304.625,-140.2699 304.625,-165 304.625,-165 304.625,-165 1128.5947,-165 1128.5947,-165"/>
<polygon fill="#000000" stroke="#000000" points="1128.5947,-168.5001 1138.5947,-165 1128.5947,-161.5001 1128.5947,-168.5001"/>
</g>
<!-- NewsArticleComponent -->
<g id="node14" class="node">
<title>NewsArticleComponent</title>
<polygon fill="#ffffb3" stroke="#000000" points="176.073,-122 23.927,-122 23.927,-86 176.073,-86 176.073,-122"/>
<text text-anchor="middle" x="100" y="-99.8" font-family="Times,serif" font-size="14.00" fill="#000000">NewsArticleComponent</text>
</g>
<!-- NewsArticleComponent&#45;&gt;ComponentsModule -->
<g id="edge14" class="edge">
<title>NewsArticleComponent&#45;&gt;ComponentsModule</title>
<path fill="none" stroke="#000000" d="M135.125,-122.1686C135.125,-141.0898 135.125,-168 135.125,-168 135.125,-168 1128.7461,-168 1128.7461,-168"/>
<polygon fill="#000000" stroke="#000000" points="1128.7461,-171.5001 1138.7461,-168 1128.7461,-164.5001 1128.7461,-171.5001"/>
</g>
<!-- BookListComponent  -->
<g id="node16" class="node">
<title>BookListComponent </title>
<polygon fill="#fb8072" stroke="#000000" points="2373.4474,-252 2236.5526,-252 2236.5526,-216 2373.4474,-216 2373.4474,-252"/>
<text text-anchor="middle" x="2305" y="-229.8" font-family="Times,serif" font-size="14.00" fill="#000000">BookListComponent </text>
</g>
<!-- ComponentsModule&#45;&gt;BookListComponent  -->
<g id="edge15" class="edge">
<title>ComponentsModule&#45;&gt;BookListComponent </title>
<path fill="none" stroke="#000000" stroke-dasharray="5,2" d="M1269.209,-171C1500.1853,-171 2265.6212,-171 2265.6212,-171 2265.6212,-171 2265.6212,-205.7778 2265.6212,-205.7778"/>
<polygon fill="#000000" stroke="#000000" points="2262.1212,-205.7778 2265.6212,-215.7778 2269.1212,-205.7778 2262.1212,-205.7778"/>
</g>
<!-- BookLocationComponent  -->
<g id="node17" class="node">
<title>BookLocationComponent </title>
<polygon fill="#fb8072" stroke="#000000" points="2218.432,-252 2053.568,-252 2053.568,-216 2218.432,-216 2218.432,-252"/>
<text text-anchor="middle" x="2136" y="-229.8" font-family="Times,serif" font-size="14.00" fill="#000000">BookLocationComponent </text>
</g>
<!-- ComponentsModule&#45;&gt;BookLocationComponent  -->
<g id="edge16" class="edge">
<title>ComponentsModule&#45;&gt;BookLocationComponent </title>
<path fill="none" stroke="#000000" stroke-dasharray="5,2" d="M1269.4701,-174C1473.5555,-174 2084.6184,-174 2084.6184,-174 2084.6184,-174 2084.6184,-205.998 2084.6184,-205.998"/>
<polygon fill="#000000" stroke="#000000" points="2081.1184,-205.998 2084.6184,-215.998 2088.1184,-205.9981 2081.1184,-205.998"/>
</g>
<!-- CampusMapFeatureModalComponent  -->
<g id="node18" class="node">
<title>CampusMapFeatureModalComponent </title>
<polygon fill="#fb8072" stroke="#000000" points="2035.4054,-252 1800.5946,-252 1800.5946,-216 2035.4054,-216 2035.4054,-252"/>
<text text-anchor="middle" x="1918" y="-229.8" font-family="Times,serif" font-size="14.00" fill="#000000">CampusMapFeatureModalComponent </text>
</g>
<!-- ComponentsModule&#45;&gt;CampusMapFeatureModalComponent  -->
<g id="edge17" class="edge">
<title>ComponentsModule&#45;&gt;CampusMapFeatureModalComponent </title>
<path fill="none" stroke="#000000" stroke-dasharray="5,2" d="M1269.2866,-176C1430.3096,-176 1833.4574,-176 1833.4574,-176 1833.4574,-176 1833.4574,-205.9664 1833.4574,-205.9664"/>
<polygon fill="#000000" stroke="#000000" points="1829.9575,-205.9663 1833.4574,-215.9664 1836.9575,-205.9664 1829.9575,-205.9663"/>
</g>
<!-- CampusTabComponent  -->
<g id="node19" class="node">
<title>CampusTabComponent </title>
<polygon fill="#fb8072" stroke="#000000" points="1782.4868,-252 1629.5132,-252 1629.5132,-216 1782.4868,-216 1782.4868,-252"/>
<text text-anchor="middle" x="1706" y="-229.8" font-family="Times,serif" font-size="14.00" fill="#000000">CampusTabComponent </text>
</g>
<!-- ComponentsModule&#45;&gt;CampusTabComponent  -->
<g id="edge18" class="edge">
<title>ComponentsModule&#45;&gt;CampusTabComponent </title>
<path fill="none" stroke="#000000" stroke-dasharray="5,2" d="M1269.3793,-179C1394.0818,-179 1653.625,-179 1653.625,-179 1653.625,-179 1653.625,-205.9909 1653.625,-205.9909"/>
<polygon fill="#000000" stroke="#000000" points="1650.1251,-205.9909 1653.625,-215.9909 1657.1251,-205.991 1650.1251,-205.9909"/>
</g>
<!-- CourseDataComponent  -->
<g id="node20" class="node">
<title>CourseDataComponent </title>
<polygon fill="#fb8072" stroke="#000000" points="1611.4152,-252 1460.5848,-252 1460.5848,-216 1611.4152,-216 1611.4152,-252"/>
<text text-anchor="middle" x="1536" y="-229.8" font-family="Times,serif" font-size="14.00" fill="#000000">CourseDataComponent </text>
</g>
<!-- ComponentsModule&#45;&gt;CourseDataComponent  -->
<g id="edge19" class="edge">
<title>ComponentsModule&#45;&gt;CourseDataComponent </title>
<path fill="none" stroke="#000000" stroke-dasharray="5,2" d="M1269.3183,-182C1352.5132,-182 1485.625,-182 1485.625,-182 1485.625,-182 1485.625,-205.8129 1485.625,-205.8129"/>
<polygon fill="#000000" stroke="#000000" points="1482.1251,-205.8129 1485.625,-215.8129 1489.1251,-205.813 1482.1251,-205.8129"/>
</g>
<!-- DatePickerComponent  -->
<g id="node21" class="node">
<title>DatePickerComponent </title>
<polygon fill="#fb8072" stroke="#000000" points="1442.5218,-252 1295.4782,-252 1295.4782,-216 1442.5218,-216 1442.5218,-252"/>
<text text-anchor="middle" x="1369" y="-229.8" font-family="Times,serif" font-size="14.00" fill="#000000">DatePickerComponent </text>
</g>
<!-- ComponentsModule&#45;&gt;DatePickerComponent  -->
<g id="edge20" class="edge">
<title>ComponentsModule&#45;&gt;DatePickerComponent </title>
<path fill="none" stroke="#000000" stroke-dasharray="5,2" d="M1269.4716,-185C1296.056,-185 1320.625,-185 1320.625,-185 1320.625,-185 1320.625,-205.7542 1320.625,-205.7542"/>
<polygon fill="#000000" stroke="#000000" points="1317.1251,-205.7542 1320.625,-215.7542 1324.1251,-205.7542 1317.1251,-205.7542"/>
</g>
<!-- EventViewComponent  -->
<g id="node22" class="node">
<title>EventViewComponent </title>
<polygon fill="#fb8072" stroke="#000000" points="1277.8087,-252 1130.1913,-252 1130.1913,-216 1277.8087,-216 1277.8087,-252"/>
<text text-anchor="middle" x="1204" y="-229.8" font-family="Times,serif" font-size="14.00" fill="#000000">EventViewComponent </text>
</g>
<!-- ComponentsModule&#45;&gt;EventViewComponent  -->
<g id="edge21" class="edge">
<title>ComponentsModule&#45;&gt;EventViewComponent </title>
<path fill="none" stroke="#000000" stroke-dasharray="5,2" d="M1204,-187.1061C1204,-187.1061 1204,-205.991 1204,-205.991"/>
<polygon fill="#000000" stroke="#000000" points="1200.5001,-205.9909 1204,-215.991 1207.5001,-205.991 1200.5001,-205.9909"/>
</g>
<!-- FooterDisclaimerComponent  -->
<g id="node23" class="node">
<title>FooterDisclaimerComponent </title>
<polygon fill="#fb8072" stroke="#000000" points="1112.2989,-252 929.7011,-252 929.7011,-216 1112.2989,-216 1112.2989,-252"/>
<text text-anchor="middle" x="1021" y="-229.8" font-family="Times,serif" font-size="14.00" fill="#000000">FooterDisclaimerComponent </text>
</g>
<!-- ComponentsModule&#45;&gt;FooterDisclaimerComponent  -->
<g id="edge22" class="edge">
<title>ComponentsModule&#45;&gt;FooterDisclaimerComponent </title>
<path fill="none" stroke="#000000" stroke-dasharray="5,2" d="M1138.5628,-185C1107.1007,-185 1076.1226,-185 1076.1226,-185 1076.1226,-185 1076.1226,-205.7542 1076.1226,-205.7542"/>
<polygon fill="#000000" stroke="#000000" points="1072.6226,-205.7542 1076.1226,-215.7542 1079.6226,-205.7542 1072.6226,-205.7542"/>
</g>
<!-- GradesTableComponent  -->
<g id="node24" class="node">
<title>GradesTableComponent </title>
<polygon fill="#fb8072" stroke="#000000" points="911.3462,-252 754.6538,-252 754.6538,-216 911.3462,-216 911.3462,-252"/>
<text text-anchor="middle" x="833" y="-229.8" font-family="Times,serif" font-size="14.00" fill="#000000">GradesTableComponent </text>
</g>
<!-- ComponentsModule&#45;&gt;GradesTableComponent  -->
<g id="edge23" class="edge">
<title>ComponentsModule&#45;&gt;GradesTableComponent </title>
<path fill="none" stroke="#000000" stroke-dasharray="5,2" d="M1138.5649,-182C1043.0685,-182 876.7618,-182 876.7618,-182 876.7618,-182 876.7618,-205.8129 876.7618,-205.8129"/>
<polygon fill="#000000" stroke="#000000" points="873.2618,-205.8129 876.7618,-215.8129 880.2618,-205.813 873.2618,-205.8129"/>
</g>
<!-- HintBoxComponent  -->
<g id="node25" class="node">
<title>HintBoxComponent </title>
<polygon fill="#fb8072" stroke="#000000" points="736.5568,-252 603.4432,-252 603.4432,-216 736.5568,-216 736.5568,-252"/>
<text text-anchor="middle" x="670" y="-229.8" font-family="Times,serif" font-size="14.00" fill="#000000">HintBoxComponent </text>
</g>
<!-- ComponentsModule&#45;&gt;HintBoxComponent  -->
<g id="edge24" class="edge">
<title>ComponentsModule&#45;&gt;HintBoxComponent </title>
<path fill="none" stroke="#000000" stroke-dasharray="5,2" d="M1138.6406,-179C1003.124,-179 704.0528,-179 704.0528,-179 704.0528,-179 704.0528,-205.9909 704.0528,-205.9909"/>
<polygon fill="#000000" stroke="#000000" points="700.5528,-205.9909 704.0528,-215.9909 707.5528,-205.991 700.5528,-205.9909"/>
</g>
<!-- LectureListComponent  -->
<g id="node26" class="node">
<title>LectureListComponent </title>
<polygon fill="#fb8072" stroke="#000000" points="585.8588,-252 436.1412,-252 436.1412,-216 585.8588,-216 585.8588,-252"/>
<text text-anchor="middle" x="511" y="-229.8" font-family="Times,serif" font-size="14.00" fill="#000000">LectureListComponent </text>
</g>
<!-- ComponentsModule&#45;&gt;LectureListComponent  -->
<g id="edge25" class="edge">
<title>ComponentsModule&#45;&gt;LectureListComponent </title>
<path fill="none" stroke="#000000" stroke-dasharray="5,2" d="M1138.7949,-176C974.2048,-176 554.9504,-176 554.9504,-176 554.9504,-176 554.9504,-205.9664 554.9504,-205.9664"/>
<polygon fill="#000000" stroke="#000000" points="551.4505,-205.9663 554.9504,-215.9664 558.4505,-205.9664 551.4505,-205.9663"/>
</g>
<!-- MensaMealComponent  -->
<g id="node27" class="node">
<title>MensaMealComponent </title>
<polygon fill="#fb8072" stroke="#000000" points="418.4152,-252 267.5848,-252 267.5848,-216 418.4152,-216 418.4152,-252"/>
<text text-anchor="middle" x="343" y="-229.8" font-family="Times,serif" font-size="14.00" fill="#000000">MensaMealComponent </text>
</g>
<!-- ComponentsModule&#45;&gt;MensaMealComponent  -->
<g id="edge26" class="edge">
<title>ComponentsModule&#45;&gt;MensaMealComponent </title>
<path fill="none" stroke="#000000" stroke-dasharray="5,2" d="M1138.704,-174C945.3702,-174 389.2642,-174 389.2642,-174 389.2642,-174 389.2642,-205.998 389.2642,-205.998"/>
<polygon fill="#000000" stroke="#000000" points="385.7643,-205.998 389.2642,-215.998 392.7643,-205.9981 385.7643,-205.998"/>
</g>
<!-- NewsArticleComponent  -->
<g id="node28" class="node">
<title>NewsArticleComponent </title>
<polygon fill="#fb8072" stroke="#000000" points="249.5736,-252 94.4264,-252 94.4264,-216 249.5736,-216 249.5736,-252"/>
<text text-anchor="middle" x="172" y="-229.8" font-family="Times,serif" font-size="14.00" fill="#000000">NewsArticleComponent </text>
</g>
<!-- ComponentsModule&#45;&gt;NewsArticleComponent  -->
<g id="edge27" class="edge">
<title>ComponentsModule&#45;&gt;NewsArticleComponent </title>
<path fill="none" stroke="#000000" stroke-dasharray="5,2" d="M1138.8104,-171C919.4937,-171 222.0395,-171 222.0395,-171 222.0395,-171 222.0395,-205.7778 222.0395,-205.7778"/>
<polygon fill="#000000" stroke="#000000" points="218.5395,-205.7778 222.0395,-215.7778 225.5395,-205.7778 218.5395,-205.7778"/>
</g>
</g>
</svg>
