<?xml version="1.0" encoding="UTF-8" standalone="no"?>
<!DOCTYPE svg PUBLIC "-//W3C//DTD SVG 1.1//EN"
 "http://www.w3.org/Graphics/SVG/1.1/DTD/svg11.dtd">
<!-- Generated by graphviz version 2.40.1 (20161225.0304)
 -->
<!-- Title: dependencies Pages: 1 -->
<svg width="504pt" height="211pt"
 viewBox="0.00 0.00 504.00 211.00" xmlns="http://www.w3.org/2000/svg" xmlns:xlink="http://www.w3.org/1999/xlink">
<g id="graph0" class="graph" transform="scale(1 1) rotate(0) translate(4 207)">
<title>dependencies</title>
<polygon fill="#ffffff" stroke="transparent" points="-4,4 -4,-207 500,-207 500,4 -4,4"/>
<text text-anchor="start" x="227.0091" y="-42.4" font-family="sans-serif" font-weight="bold" font-size="14.00" fill="#000000">Legend</text>
<polygon fill="#ffffb3" stroke="transparent" points="14,-10 14,-30 34,-30 34,-10 14,-10"/>
<text text-anchor="start" x="37.629" y="-15.4" font-family="sans-serif" font-size="14.00" fill="#000000"> &#160;Declarations</text>
<polygon fill="#8dd3c7" stroke="transparent" points="127,-10 127,-30 147,-30 147,-10 127,-10"/>
<text text-anchor="start" x="150.7251" y="-15.4" font-family="sans-serif" font-size="14.00" fill="#000000"> &#160;Module</text>
<polygon fill="#80b1d3" stroke="transparent" points="213,-10 213,-30 233,-30 233,-10 213,-10"/>
<text text-anchor="start" x="236.7812" y="-15.4" font-family="sans-serif" font-size="14.00" fill="#000000"> &#160;Bootstrap</text>
<polygon fill="#fdb462" stroke="transparent" points="310,-10 310,-30 330,-30 330,-10 310,-10"/>
<text text-anchor="start" x="333.6732" y="-15.4" font-family="sans-serif" font-size="14.00" fill="#000000"> &#160;Providers</text>
<polygon fill="#fb8072" stroke="transparent" points="406,-10 406,-30 426,-30 426,-10 406,-10"/>
<text text-anchor="start" x="429.7258" y="-15.4" font-family="sans-serif" font-size="14.00" fill="#000000"> &#160;Exports</text>
<g id="clust1" class="cluster">
<title>cluster_LecturesPageModule</title>
<polygon fill="none" stroke="#000000" stroke-dasharray="1,5" points="97,-70 97,-195 399,-195 399,-70 97,-70"/>
</g>
<g id="clust2" class="cluster">
<title>cluster_LecturesPageModule_declarations</title>
<polygon fill="none" stroke="#000000" points="105,-78 105,-130 391,-130 391,-78 105,-78"/>
</g>
<!-- LectureSearchModalPage -->
<g id="node1" class="node">
<title>LectureSearchModalPage</title>
<polygon fill="#ffffb3" stroke="#000000" points="383.0967,-122 222.9033,-122 222.9033,-86 383.0967,-86 383.0967,-122"/>
<text text-anchor="middle" x="303" y="-99.8" font-family="Times,serif" font-size="14.00" fill="#000000">LectureSearchModalPage</text>
</g>
<!-- LecturesPageModule -->
<g id="node3" class="node">
<title>LecturesPageModule</title>
<polygon fill="#8dd3c7" stroke="#000000" points="304.4538,-187 301.4538,-191 280.4538,-191 277.4538,-187 169.5462,-187 169.5462,-151 304.4538,-151 304.4538,-187"/>
<text text-anchor="middle" x="237" y="-164.8" font-family="Times,serif" font-size="14.00" fill="#000000">LecturesPageModule</text>
</g>
<!-- LectureSearchModalPage&#45;&gt;LecturesPageModule -->
<g id="edge1" class="edge">
<title>LectureSearchModalPage&#45;&gt;LecturesPageModule</title>
<path fill="none" stroke="#000000" d="M263.5894,-122.1061C263.5894,-122.1061 263.5894,-140.991 263.5894,-140.991"/>
<polygon fill="#000000" stroke="#000000" points="260.0895,-140.9909 263.5894,-150.991 267.0895,-140.991 260.0895,-140.9909"/>
</g>
<!-- LecturesPage -->
<g id="node2" class="node">
<title>LecturesPage</title>
<polygon fill="#ffffb3" stroke="#000000" points="204.9049,-122 113.0951,-122 113.0951,-86 204.9049,-86 204.9049,-122"/>
<text text-anchor="middle" x="159" y="-99.8" font-family="Times,serif" font-size="14.00" fill="#000000">LecturesPage</text>
</g>
<!-- LecturesPage&#45;&gt;LecturesPageModule -->
<g id="edge2" class="edge">
<title>LecturesPage&#45;&gt;LecturesPageModule</title>
<path fill="none" stroke="#000000" d="M187.1126,-122.1061C187.1126,-122.1061 187.1126,-140.991 187.1126,-140.991"/>
<polygon fill="#000000" stroke="#000000" points="183.6126,-140.9909 187.1126,-150.991 190.6126,-140.991 183.6126,-140.9909"/>
</g>
</g>
</svg>
